<svg xmlns="http://www.w3.org/2000/svg" viewBox="0 0 46.6 46.6"><path d="M25.615 39.658H6.442C2.89 39.658 0 36.769 0 33.217c0-3.502 2.81-6.361 6.294-6.44 1.24-4.303 5.16-7.274 9.67-7.274 3.738 0 7.104 2.026 8.869 5.311.279-.031.534-.046.781-.046 4.105 0 7.446 3.339 7.446 7.443.001 4.106-3.339 7.447-7.445 7.447zM6.442 27.776c-3 0-5.442 2.441-5.442 5.441s2.441 5.44 5.442 5.44h19.173c3.554 0 6.446-2.892 6.446-6.446 0-3.553-2.892-6.443-6.446-6.443-.299 0-.614.026-.991.083-.215.031-.426-.078-.522-.273-1.544-3.129-4.663-5.074-8.138-5.074-4.184 0-7.804 2.839-8.804 6.904-.056.228-.259.369-.498.38l-.22-.012z"/><path d="M25.615 39.658c-.276 0-.5-.224-.5-.5s.224-.5.5-.5c3.554 0 6.446-2.892 6.446-6.446 0-3.553-2.892-6.443-6.446-6.443-1.863 0-3.633.805-4.857 2.208-.182.208-.497.229-.706.048-.208-.182-.229-.498-.048-.706 1.414-1.621 3.459-2.55 5.611-2.55 4.105 0 7.446 3.339 7.446 7.443 0 4.105-3.34 7.446-7.446 7.446zM36.044 29.809c-.128 0-.256-.049-.354-.147-.195-.196-.194-.513.001-.708 1.491-1.484 2.312-3.46 2.312-5.564 0-4.33-3.522-7.853-7.853-7.853-2.278 0-4.442.989-5.937 2.713-.182.208-.497.231-.706.05-.208-.181-.231-.497-.05-.706 1.685-1.943 4.125-3.058 6.693-3.058 4.881 0 8.853 3.971 8.853 8.853 0 2.372-.925 4.6-2.605 6.273-.099.099-.227.147-.354.147zM30.15 11.695c-.276 0-.5-.224-.5-.5V7.442c0-.276.224-.5.5-.5s.5.224.5.5v3.753c0 .276-.224.5-.5.5zM46.1 23.89h-3.753c-.276 0-.5-.224-.5-.5s.224-.5.5-.5H46.1c.276 0 .5.224.5.5s-.224.5-.5.5zM38.774 15.266c-.128 0-.256-.049-.354-.146-.195-.195-.195-.512 0-.707l2.654-2.653c.195-.195.512-.195.707 0s.195.512 0 .707l-2.654 2.653c-.097.097-.225.146-.353.146zM41.427 35.168c-.128 0-.256-.049-.354-.146L38.42 32.37c-.195-.195-.195-.512 0-.707s.512-.195.707 0l2.653 2.652c.195.195.195.512 0 .707-.097.098-.225.146-.353.146zM21.524 15.266c-.128 0-.256-.049-.354-.146l-2.652-2.653c-.195-.195-.195-.512 0-.707s.512-.195.707 0l2.652 2.653c.195.195.195.512 0 .707-.097.097-.225.146-.353.146z"/></svg>