<svg xmlns="http://www.w3.org/2000/svg" viewBox="0 0 32 32"><defs><style>.cls-3{stroke:none}</style></defs><g id="Group_7" data-name="Group 7" transform="translate(-58.496 -31.997)" fill="none"><g id="Path_9" data-name="Path 9"><path class="cls-3" d="M7.18 0a7.18 7.18 0 0 1 7.18 7.18c0 3.965-7.116 13.828-7.18 13.791S0 11.145 0 7.18A7.18 7.18 0 0 1 7.18 0z" transform="translate(67.359 37.458)"/><path d="M7.17998 2C4.32373 2 2 4.32371 2 7.17998c0 .43877.22466 2.245 3.11538 7.0651.72266 1.205 1.45755 2.33914 2.07546 3.2599.63011-.93905 1.38438-2.10719 2.12401-3.35087 2.82552-4.75108 3.04511-6.53925 3.04511-6.97413 0-2.85627-2.32373-5.18-5.17998-5.18m0-2c3.96539 0 7.17998 3.2146 7.17998 7.18 0 3.95788-7.0895 13.7915-7.17955 13.7915a.00083.00083 0 0 1-.00043-.0001C7.1164 20.9347 0 11.14539 0 7.18c0-3.9654 3.2146-7.18 7.17998-7.18z" fill="#fff" transform="translate(67.359 37.458)"/></g><g id="Ellipse_1" data-name="Ellipse 1" transform="translate(58.496 31.997)" stroke="#fff" stroke-width="2"><circle class="cls-3" cx="16" cy="16" r="16"/><circle cx="16" cy="16" r="15"/></g></g></svg>